<svg width="26" height="26" viewBox="0 0 26 26" fill="none" xmlns="http://www.w3.org/2000/svg">
<g clip-path="url(#clip0_216_202)">
<rect width="26" height="26" rx="5" fill="#353F9A"/>
<path d="M16.8594 4.67188C18.0446 4.67188 19.1812 5.14269 20.0193 5.98074C20.8573 6.81879 21.3281 7.95544 21.3281 9.14062V16.8594C21.3281 18.0446 20.8573 19.1812 20.0193 20.0193C19.1812 20.8573 18.0446 21.3281 16.8594 21.3281H9.14062C7.95544 21.3281 6.81879 20.8573 5.98074 20.0193C5.14269 19.1812 4.67188 18.0446 4.67188 16.8594V9.14062C4.67188 7.95544 5.14269 6.81879 5.98074 5.98074C6.81879 5.14269 7.95544 4.67188 9.14062 4.67188H16.8594ZM16.8594 3.04688H9.14062C7.52595 3.0517 5.97878 3.69526 4.83702 4.83702C3.69526 5.97878 3.0517 7.52595 3.04688 9.14062V16.8594C3.0517 18.4741 3.69526 20.0212 4.83702 21.163C5.97878 22.3047 7.52595 22.9483 9.14062 22.9531H16.8594C18.4741 22.9483 20.0212 22.3047 21.163 21.163C22.3047 20.0212 22.9483 18.4741 22.9531 16.8594V9.14062C22.9483 7.52595 22.3047 5.97878 21.163 4.83702C20.0212 3.69526 18.4741 3.0517 16.8594 3.04688Z" fill="white"/>
<path d="M18.3099 6.5C18.0797 6.5 17.8547 6.56826 17.6633 6.69615C17.4719 6.82405 17.3227 7.00582 17.2346 7.2185C17.1465 7.43117 17.1235 7.6652 17.1684 7.89097C17.2133 8.11675 17.3241 8.32414 17.4869 8.48691C17.6497 8.64969 17.8571 8.76054 18.0828 8.80545C18.3086 8.85036 18.5426 8.82731 18.7553 8.73922C18.968 8.65112 19.1498 8.50194 19.2777 8.31054C19.4055 8.11913 19.4738 7.8941 19.4738 7.66391C19.4738 7.51106 19.4437 7.35971 19.3852 7.2185C19.3267 7.07729 19.241 6.94898 19.1329 6.8409C19.0248 6.73282 18.8965 6.64709 18.7553 6.5886C18.6141 6.5301 18.4627 6.5 18.3099 6.5Z" fill="white"/>
<path d="M13.0547 9.43922C13.7652 9.43882 14.4598 9.64915 15.0507 10.0436C15.6416 10.4381 16.1022 10.9989 16.3743 11.6552C16.6463 12.3115 16.7176 13.0338 16.5791 13.7306C16.4406 14.4274 16.0985 15.0675 15.5962 15.5699C15.0938 16.0722 14.4537 16.4143 13.7569 16.5528C13.0601 16.6913 12.3378 16.62 11.6815 16.348C11.0252 16.0759 10.4644 15.6153 10.0699 15.0244C9.67544 14.4335 9.46511 13.7389 9.46551 13.0284C9.46712 12.077 9.84579 11.165 10.5185 10.4923C11.1913 9.8195 12.1033 9.44083 13.0547 9.43922ZM13.0547 7.81422C12.0234 7.81623 11.0158 8.12391 10.1593 8.69839C9.30278 9.27287 8.63578 10.0884 8.2426 11.0418C7.84941 11.9952 7.74767 13.0438 7.95025 14.0551C8.15284 15.0663 8.65064 15.9948 9.38075 16.7232C10.1109 17.4516 11.0405 17.9472 12.0522 18.1475C13.0639 18.3477 14.1123 18.2435 15.0648 17.8481C16.0173 17.4527 16.8312 16.7838 17.4037 15.9259C17.9762 15.0681 18.2815 14.0598 18.2811 13.0284C18.2809 12.3427 18.1454 11.6638 17.8825 11.0305C17.6196 10.3972 17.2344 9.822 16.749 9.33771C16.2636 8.85342 15.6875 8.46959 15.0535 8.20817C14.4196 7.94675 13.7404 7.81288 13.0547 7.81422Z" fill="white"/>
</g>
<defs>
<clipPath id="clip0_216_202">
<rect width="26" height="26" fill="white"/>
</clipPath>
</defs>
</svg>
